<?xml version="1.0" encoding="utf-8"?>
<!-- Generator: Adobe Illustrator 22.1.0, SVG Export Plug-In . SVG Version: 6.00 Build 0)  -->
<svg version="1.1" id="Layer_1" xmlns="http://www.w3.org/2000/svg" xmlns:xlink="http://www.w3.org/1999/xlink" x="0px" y="0px"
	 viewBox="0 0 550 158" style="enable-background:new 0 0 550 158;" xml:space="preserve">
<style type="text/css">
	.st0{clip-path:url(#SVGID_2_);fill:#009ECC;}
	.st1{clip-path:url(#SVGID_2_);fill:#61BAE3;}
	.st2{clip-path:url(#SVGID_2_);fill:#0052A3;}
	.st3{fill:#009ECC;}
	.st4{clip-path:url(#SVGID_4_);fill:#61BAE3;}
	.st5{clip-path:url(#SVGID_4_);fill:#FFFFFF;}
	.st6{clip-path:url(#SVGID_4_);fill:none;stroke:#FFFFFF;stroke-width:0.527;stroke-miterlimit:10;}
	.st7{clip-path:url(#SVGID_4_);fill:#0F9CDB;}
	.st8{clip-path:url(#SVGID_4_);fill:#264A7D;}
	.st9{fill:#FFFFFF;}
</style>
<g>
	<defs>
		<rect id="SVGID_1_" x="37.2" y="10" width="479.2" height="137"/>
	</defs>
	<clipPath id="SVGID_2_">
		<use xlink:href="#SVGID_1_"  style="overflow:visible;"/>
	</clipPath>
	<path class="st0" d="M137.6,126.4V95.9c0-5.6-0.8-9.5-2.5-11.7c-1.7-2.2-4.5-3.4-8.4-3.4c-2.1,0-4.3,0.6-6.7,1.9
		c-2.3,1.3-4.1,2.8-5.3,4.7v39h-9.3V74h6.4l2.9,6.8c3.1-5.2,8.1-7.7,15-7.7c11.5,0,17.2,7,17.2,21v32.5H137.6z"/>
	<path class="st1" d="M166.5,100.1c0,13.2,4.7,19.7,14,19.7c4.3,0,7.7-1.8,10.2-5.3c2.5-3.5,3.7-8.3,3.7-14.4
		c0-13-4.6-19.5-13.9-19.5c-4.2,0-7.6,1.7-10.2,5.2C167.8,89.3,166.5,94,166.5,100.1 M156.7,100.1c0-8.1,2.2-14.6,6.5-19.6
		c4.4-5,10.1-7.5,17.2-7.5c7.5,0,13.3,2.4,17.5,7.2c4.1,4.8,6.2,11.4,6.2,19.9c0,8.5-2.1,15.1-6.4,20c-4.2,4.9-10,7.3-17.3,7.3
		c-7.5,0-13.3-2.5-17.5-7.4C158.8,115.1,156.7,108.5,156.7,100.1"/>
	<path class="st1" d="M220.3,100.1c0,13.2,4.7,19.7,14,19.7c4.3,0,7.7-1.8,10.2-5.3c2.5-3.5,3.7-8.3,3.7-14.4
		c0-13-4.6-19.5-13.9-19.5c-4.2,0-7.6,1.7-10.2,5.2C221.6,89.3,220.3,94,220.3,100.1 M210.5,100.1c0-8.1,2.2-14.6,6.5-19.6
		c4.4-5,10.1-7.5,17.2-7.5c7.5,0,13.3,2.4,17.5,7.2c4.1,4.8,6.2,11.4,6.2,19.9c0,8.5-2.1,15.1-6.4,20c-4.2,4.9-10,7.3-17.3,7.3
		c-7.5,0-13.3-2.5-17.5-7.4C212.6,115.1,210.5,108.5,210.5,100.1"/>
	<path class="st2" d="M285.6,80.5c-3.2,0-5.9,1.1-7.9,3.4c-2,2.3-3.1,5.1-3.1,8.3c0,3.7,1,6.7,3,9.1c2,2.4,4.6,3.6,8,3.6
		c3.3,0,5.9-1.2,7.7-3.5c1.9-2.3,2.8-5.4,2.8-9.2c0-3.3-1-6-3-8.3C291.1,81.7,288.6,80.5,285.6,80.5 M265.8,140.8l5-7.4
		c5.4,3.6,10.4,5.4,15,5.4c4.2,0,7.5-0.7,10-2.2c2.4-1.5,3.6-3.3,3.6-5.4c0-4.2-3.1-6.4-9.2-6.4c-1,0-2.9,0.3-5.7,0.8
		c-2.7,0.5-4.9,0.8-6.4,0.8c-7.4,0-11.2-2.8-11.2-8.4c0-1.7,0.9-3.3,2.6-4.7c1.7-1.4,3.9-2.4,6.5-3c-7.4-3.5-11.1-9.5-11.1-18
		c0-5.5,1.9-10.1,5.7-13.7c3.8-3.7,8.5-5.5,14.1-5.5c5.2,0,9.2,1.1,12.1,3.2l4.7-5.6l6.1,5.7l-5.6,4.2c2.4,3.1,3.6,7.1,3.6,12.1
		c0,5.3-1.6,9.7-4.9,13.3c-3.3,3.6-7.6,5.6-13,6.2l-7.7,0.8c-0.9,0.1-2.1,0.4-3.7,1.1c-1.5,0.6-2.3,1.4-2.3,2.4c0,1.3,1.6,2,4.8,2
		c1.4,0,3.6-0.3,6.6-0.8c3-0.5,5.2-0.8,6.6-0.8c5.2,0,9.2,1.2,12.1,3.7c2.9,2.5,4.3,5.9,4.3,10.3c0,4.8-2.2,8.7-6.5,11.7
		c-4.3,3-9.8,4.5-16.4,4.5c-3.4,0-7-0.6-10.7-1.8C271.1,144,268.1,142.5,265.8,140.8"/>
	<path class="st2" d="M318.8,111.6V52.5h9.3V110c0,2.8,0.8,5,2.4,6.6c1.6,1.6,3.7,2.4,6.3,2.4v8.3
		C324.8,127.4,318.8,122.1,318.8,111.6"/>
	<path class="st2" d="M369.2,80.9c-4.1,0-7.6,1.3-10.4,4c-2.7,2.5-4.2,5.7-4.6,9.5h29c0-3.8-1.2-6.9-3.5-9.4
		C377.2,82.2,373.7,80.9,369.2,80.9 M391.8,101.1H354c0,6.1,1.7,10.9,5,14.1c3,2.9,6.8,4.3,11.5,4.3c5.3,0,9.8-1.6,13.3-4.7l3.9,6.7
		c-1.4,1.4-3.6,2.7-6.6,3.7c-3.7,1.4-7.9,2.1-12.4,2.1c-6.6,0-12.2-2.2-16.8-6.7c-5.1-4.9-7.7-11.6-7.7-19.9
		c0-8.6,2.6-15.6,7.9-20.8c4.7-4.7,10.3-7,16.7-7c7.5,0,13.3,2.1,17.6,6.3c4.1,4,6.2,9.4,6.2,16.1
		C392.5,97.5,392.3,99.4,391.8,101.1"/>
</g>
<polygon class="st3" points="37.2,28 37.2,126.6 49.6,126.6 49.6,102.8 60.4,91.6 82.4,126.6 95.8,126.6 68.4,83.3 90.8,56.7 
	76.3,56.7 49.6,89.2 49.6,28 "/>
<g>
	<defs>
		<rect id="SVGID_3_" x="37.2" y="10" width="479.2" height="137"/>
	</defs>
	<clipPath id="SVGID_4_">
		<use xlink:href="#SVGID_3_"  style="overflow:visible;"/>
	</clipPath>
	<path class="st4" d="M413.3,61.5c-0.4-29,23.1-51.5,51.5-51.5c28.5,0,51.9,22.5,51.5,51.5c-0.4,29-26.1,32.2-26.1,51.5
		s-51.5,19.3-51.5,0S413.6,90.5,413.3,61.5"/>
	<path class="st4" d="M488.7,122.7h-48.4c-0.9,0-1.6-0.7-1.6-1.6v-6.5c0-0.9,0.7-1.6,1.6-1.6h48.4c0.9,0,1.6,0.7,1.6,1.6v6.5
		C490.2,122,489.5,122.7,488.7,122.7"/>
	<path class="st5" d="M443.5,114.2c-2,0-3.7,1.7-3.7,3.7c0,2,1.7,3.7,3.7,3.7h41.9c2,0,3.7-1.7,3.7-3.7c0-2-1.7-3.7-3.7-3.7H443.5z
		 M485.4,123.9h-41.9c-3.3,0-6-2.7-6-6c0-3.3,2.7-6,6-6h41.9c3.3,0,6,2.7,6,6C491.3,121.2,488.7,123.9,485.4,123.9"/>
	<path class="st6" d="M443.5,114.2c-2,0-3.7,1.7-3.7,3.7c0,2,1.7,3.7,3.7,3.7h41.9c2,0,3.7-1.7,3.7-3.7c0-2-1.7-3.7-3.7-3.7H443.5z
		 M485.4,123.9h-41.9c-3.3,0-6-2.7-6-6c0-3.3,2.7-6,6-6h41.9c3.3,0,6,2.7,6,6C491.3,121.2,488.7,123.9,485.4,123.9z"/>
	<path class="st7" d="M488.7,132.4h-48.4c-0.9,0-1.6-0.7-1.6-1.6v-6.5c0-0.9,0.7-1.6,1.6-1.6h48.4c0.9,0,1.6,0.7,1.6,1.6v6.5
		C490.2,131.7,489.5,132.4,488.7,132.4"/>
	<path class="st5" d="M443.5,123.9c-2,0-3.7,1.7-3.7,3.7s1.7,3.7,3.7,3.7h41.9c2,0,3.7-1.7,3.7-3.7s-1.7-3.7-3.7-3.7H443.5z
		 M485.4,133.5h-41.9c-3.3,0-6-2.7-6-6c0-3.3,2.7-6,6-6h41.9c3.3,0,6,2.7,6,6C491.3,130.9,488.7,133.5,485.4,133.5"/>
	<path class="st6" d="M443.5,123.9c-2,0-3.7,1.7-3.7,3.7s1.7,3.7,3.7,3.7h41.9c2,0,3.7-1.7,3.7-3.7s-1.7-3.7-3.7-3.7H443.5z
		 M485.4,133.5h-41.9c-3.3,0-6-2.7-6-6c0-3.3,2.7-6,6-6h41.9c3.3,0,6,2.7,6,6C491.3,130.9,488.7,133.5,485.4,133.5z"/>
	<path class="st8" d="M475.2,138.5h-21.5c-2.4,0-9.5-6.1-7.2-6.1h35.8C484.7,132.4,477.5,138.5,475.2,138.5"/>
	<path class="st5" d="M447.9,133.5c1.5,1.5,4.7,3.8,5.8,3.8h21.5c1.1,0,4.3-2.3,5.8-3.8H447.9z M475.2,139.6h-21.5
		c-2.3,0-8.7-4.7-8.7-6.9c0-0.7,0.5-1.4,1.6-1.4h35.8c1.1,0,1.6,0.7,1.6,1.4C483.9,134.9,477.5,139.6,475.2,139.6"/>
	<path class="st5" d="M450.9,68.8c-1.4,0.2-4.2,0.9-4.7,2.2c-0.4,1,0.5,2.6,2.3,4.5c0.1,0.1,4,4.2,9.9,6.2c0.2-3.1,0-8-2.4-10.8
		C454.8,69.5,453.1,68.8,450.9,68.8 M477.4,68.8c-0.4,0-1.8,0.1-3.2,1.4c-1.6,1.5-3.5,4.8-3.8,11.9c3.6-1.1,7-3.3,10.3-6.6
		c2-2.1,2.9-3.9,2.5-4.9c-0.6-1.3-3.9-1.8-5.6-1.8l-0.2,0C477.5,68.8,477.4,68.8,477.4,68.8 M461.5,111.8h-3.4V85.3
		c-7.1-2.2-11.8-7.1-12-7.4c-2.8-3-3.8-5.7-3-8c1.4-3.7,7-4.3,7.6-4.4l0.2,0c3.2,0,5.8,1.1,7.7,3.4c3.3,3.9,3.4,10.3,3.2,13.9
		c1,0.2,2,0.3,3,0.3c0.8,0,1.6,0,2.3-0.1c0.2-7.3,1.8-12.4,5-15.2c2.5-2.3,5.1-2.2,5.7-2.2c1,0,7,0.2,8.6,3.9c1,2.3,0,5.1-3.2,8.5
		c-5.7,5.7-12,8.6-18.5,8.5c-1.1,0-2.2-0.1-3.2-0.3V111.8z"/>
</g>
<rect x="467.1" y="85" class="st9" width="3.4" height="26.8"/>
</svg>
