<?xml version="1.0" encoding="utf-8"?>
<!-- Generator: Adobe Illustrator 22.1.0, SVG Export Plug-In . SVG Version: 6.00 Build 0)  -->
<svg version="1.1" id="Layer_1" xmlns="http://www.w3.org/2000/svg" xmlns:xlink="http://www.w3.org/1999/xlink" x="0px" y="0px"
	 viewBox="0 0 32 32" style="enable-background:new 0 0 32 32;" xml:space="preserve">
<style type="text/css">
	.st0{fill:none;}
	.st1{fill:#FFFFFF;}
	.st2{fill:#0052A2;}
</style>
<symbol  id="Arrow_24" viewBox="-12.2 -19.8 24.4 39.7">
	<rect x="-10.7" y="-17.9" class="st0" width="21.4" height="35.9"/>
	<g>
		<g>
			<g>
				<path class="st1" d="M-9.4-18.7c3.5,6,6.9,12,10.4,17.9c0.3,0.5,0.3,1,0,1.5c-3.5,6-6.9,12-10.4,17.9c-0.4-0.8-0.9-1.5-1.3-2.3
					c2.9,0,5.8,0,8.7,0c0.5,0,1.4-0.1,1.9,0C0.7,16.6-1,17.2-0.9,17c0.5-0.9,1-1.7,1.5-2.6c1.7-3,3.5-6,5.2-9.1
					c0.8-1.4,1.6-2.8,2.4-4.1C8.6,0.6,9.4-1.4,9.4,0c0,1.4-0.5-0.3-0.9-0.9c-0.9-1.3-1.6-2.7-2.3-4c-1.8-3.2-3.6-6.3-5.5-9.5
					c-0.5-0.8-1.1-1.7-1.5-2.6c-0.2-0.6,1.7,0.3,0.8,0.5c-0.6,0.1-1.3,0-1.9,0c-2.9,0-5.8,0-8.7,0c-1.9,0-1.9-3,0-3
					c4.1,0,10.8-1.8,13.1,2.2c3.3,5.5,6.4,11,9.6,16.5c0.3,0.5,0.3,1,0,1.5C8.8,6.3,5.7,11.8,2.4,17.3c-2.4,4-9,2.2-13.1,2.2
					c-1.1,0-1.9-1.3-1.3-2.3c1.7-3,3.5-6,5.2-9C-5.6,6.2-4.4,4.1-3.2,2c0.4-0.6,1.6-3.6,1.6-2s-1.2-1.4-1.6-2
					c-1.2-2.1-2.4-4.1-3.6-6.2c-1.7-3-3.5-6-5.2-9C-13-18.8-10.4-20.4-9.4-18.7z"/>
			</g>
		</g>
	</g>
</symbol>
<g>
	<ellipse class="st2" cx="16" cy="16" rx="14.7" ry="14.9"/>
	
		<use xlink:href="#Arrow_24"  width="24.4" height="39.7" id="XMLID_4_" x="-12.2" y="-19.8" transform="matrix(-5.453806e-04 0.4362 0.4278 5.494687e-04 15.9814 17.7609)" style="overflow:visible;"/>
</g>
</svg>
