<?xml version="1.0" encoding="utf-8"?>
<!-- Generator: Adobe Illustrator 22.1.0, SVG Export Plug-In . SVG Version: 6.00 Build 0)  -->
<svg version="1.1" id="Layer_1" xmlns="http://www.w3.org/2000/svg" xmlns:xlink="http://www.w3.org/1999/xlink" x="0px" y="0px"
	 viewBox="0 0 480 140" style="enable-background:new 0 0 480 140;" xml:space="preserve">
<style type="text/css">
	.st0{fill:#009DCB;}
	.st1{fill:#60BAE3;}
	.st2{fill:#0052A2;}
	.st3{fill:#FFFDC7;}
	.st4{fill:#FFFFFF;stroke:#FFFFFF;stroke-width:0.4;stroke-miterlimit:10;}
	.st5{fill:#0F9BDC;}
	.st6{fill:#254B7C;}
	.st7{fill:#FFFFFF;}
</style>
<g>
	<g>
		<path class="st0" d="M118.5,111.9V85.2c0-4.9-0.7-8.3-2.2-10.2c-1.5-2-3.9-2.9-7.4-2.9c-1.9,0-3.8,0.6-5.8,1.7
			c-2,1.1-3.6,2.5-4.7,4.1v34h-8.1V66.1h5.6l2.6,5.9c2.7-4.5,7.1-6.8,13.1-6.8c10,0,15,6.1,15,18.3v28.3H118.5z"/>
		<path class="st1" d="M135.2,88.9c0-7.1,1.9-12.8,5.7-17.1c3.8-4.3,8.8-6.5,15-6.5c6.6,0,11.6,2.1,15.3,6.3
			c3.6,4.2,5.4,10,5.4,17.4c0,7.4-1.9,13.2-5.6,17.5c-3.7,4.3-8.8,6.4-15.1,6.4c-6.5,0-11.6-2.2-15.3-6.5
			C137,102,135.2,96.2,135.2,88.9z M143.7,88.9c0,11.5,4.1,17.2,12.2,17.2c3.8,0,6.8-1.5,8.9-4.6c2.2-3.1,3.2-7.3,3.2-12.6
			c0-11.3-4-17-12.1-17c-3.7,0-6.7,1.5-8.9,4.5C144.8,79.4,143.7,83.6,143.7,88.9z"/>
		<path class="st1" d="M182.2,88.9c0-7.1,1.9-12.8,5.7-17.1c3.8-4.3,8.8-6.5,15-6.5c6.6,0,11.6,2.1,15.3,6.3
			c3.6,4.2,5.4,10,5.4,17.4c0,7.4-1.9,13.2-5.6,17.5c-3.7,4.3-8.8,6.4-15.1,6.4c-6.5,0-11.6-2.2-15.3-6.5
			C184,102,182.2,96.2,182.2,88.9z M190.7,88.9c0,11.5,4.1,17.2,12.2,17.2c3.8,0,6.8-1.5,8.9-4.6c2.2-3.1,3.2-7.3,3.2-12.6
			c0-11.3-4-17-12.1-17c-3.7,0-6.7,1.5-8.9,4.5C191.8,79.4,190.7,83.6,190.7,88.9z"/>
		<path class="st2" d="M230.5,124.4l4.4-6.5c4.7,3.2,9.1,4.7,13.1,4.7c3.7,0,6.6-0.6,8.7-1.9c2.1-1.3,3.2-2.8,3.2-4.7
			c0-3.7-2.7-5.6-8-5.6c-0.9,0-2.6,0.2-5,0.7c-2.4,0.5-4.3,0.7-5.6,0.7c-6.5,0-9.7-2.5-9.7-7.4c0-1.5,0.8-2.9,2.3-4.1
			c1.5-1.2,3.4-2.1,5.7-2.6c-6.4-3-9.7-8.3-9.7-15.7c0-4.8,1.7-8.8,5-12c3.3-3.2,7.5-4.8,12.4-4.8c4.5,0,8,0.9,10.6,2.8l4.1-4.9
			l5.3,5l-4.9,3.7c2.1,2.7,3.1,6.2,3.1,10.6c0,4.6-1.4,8.5-4.3,11.6c-2.9,3.1-6.7,4.9-11.3,5.4l-6.7,0.7c-0.8,0.1-1.9,0.4-3.2,0.9
			c-1.3,0.5-2,1.2-2,2.1c0,1.2,1.4,1.8,4.2,1.8c1.2,0,3.1-0.2,5.7-0.7c2.6-0.4,4.5-0.7,5.8-0.7c4.5,0,8,1.1,10.5,3.2s3.8,5.1,3.8,9
			c0,4.2-1.9,7.6-5.7,10.2c-3.8,2.6-8.6,3.9-14.3,3.9c-3,0-6.1-0.5-9.4-1.6C235.1,127.2,232.5,125.9,230.5,124.4z M247.7,71.8
			c-2.8,0-5.1,1-6.9,3c-1.8,2-2.7,4.4-2.7,7.3c0,3.2,0.9,5.8,2.6,7.9c1.7,2.1,4.1,3.1,7,3.1c2.9,0,5.1-1,6.8-3.1
			c1.6-2,2.4-4.7,2.4-8c0-2.8-0.9-5.3-2.6-7.3C252.5,72.8,250.3,71.8,247.7,71.8z"/>
		<path class="st2" d="M276.7,98.9V47.3h8.1v50.2c0,2.5,0.7,4.4,2.1,5.8c1.4,1.4,3.3,2.1,5.5,2.1v7.3
			C282,112.7,276.7,108.1,276.7,98.9z"/>
		<path class="st2" d="M340.5,89.8h-33c0,5.4,1.5,9.5,4.4,12.4c2.6,2.5,5.9,3.8,10,3.8c4.6,0,8.5-1.4,11.6-4.1l3.4,5.9
			c-1.3,1.3-3.2,2.3-5.8,3.2c-3.2,1.2-6.9,1.8-10.9,1.8c-5.8,0-10.6-2-14.7-5.9c-4.5-4.3-6.7-10.1-6.7-17.4c0-7.6,2.3-13.6,6.9-18.2
			c4.1-4.1,9-6.1,14.6-6.1c6.5,0,11.6,1.8,15.3,5.5c3.6,3.5,5.4,8.2,5.4,14.1C341.1,86.6,340.9,88.2,340.5,89.8z M320.8,72.1
			c-3.6,0-6.7,1.2-9.1,3.5c-2.3,2.2-3.7,5-4,8.3H333c0-3.3-1-6-3.1-8.2C327.7,73.3,324.6,72.1,320.8,72.1z"/>
	</g>
	<g>
		<path class="st0" d="M70.2,112L51.1,81.5l-9.5,9.7V112H30.8V25.9h10.8v53.4L65,51h12.7L58.1,74.2L82,112H70.2z"/>
	</g>
	<g>
		<g>
			<g>
				<path class="st3" d="M359.2,55.2c-0.3-25.3,20.1-45,45-45s45.3,19.7,45,45s-22.8,28.1-22.8,45s-45,16.9-45,0
					S359.5,80.5,359.2,55.2z"/>
			</g>
		</g>
		<g>
			<g>
				<path class="st1" d="M425,108.6h-42.3c-0.7,0-1.4-0.6-1.4-1.4v-5.7c0-0.7,0.6-1.4,1.4-1.4H425c0.7,0,1.4,0.6,1.4,1.4v5.7
					C426.4,108,425.8,108.6,425,108.6z"/>
			</g>
			<g>
				<path class="st4" d="M422.2,109.6h-36.6c-2.9,0-5.2-2.3-5.2-5.2c0-2.9,2.3-5.2,5.2-5.2h36.6c2.9,0,5.2,2.3,5.2,5.2
					C427.4,107.3,425,109.6,422.2,109.6z M385.6,101.2c-1.8,0-3.2,1.5-3.2,3.2c0,1.8,1.5,3.2,3.2,3.2h36.6c1.8,0,3.2-1.5,3.2-3.2
					c0-1.8-1.5-3.2-3.2-3.2H385.6z"/>
			</g>
		</g>
		<g>
			<g>
				<path class="st5" d="M425,117.1h-42.3c-0.7,0-1.4-0.6-1.4-1.4V110c0-0.7,0.6-1.4,1.4-1.4H425c0.7,0,1.4,0.6,1.4,1.4v5.7
					C426.4,116.5,425.8,117.1,425,117.1z"/>
			</g>
			<g>
				<path class="st4" d="M422.2,118h-36.6c-2.9,0-5.2-2.3-5.2-5.2c0-2.9,2.3-5.2,5.2-5.2h36.6c2.9,0,5.2,2.3,5.2,5.2
					C427.4,115.7,425,118,422.2,118z M385.6,109.6c-1.8,0-3.2,1.5-3.2,3.2c0,1.8,1.5,3.2,3.2,3.2h36.6c1.8,0,3.2-1.5,3.2-3.2
					c0-1.8-1.5-3.2-3.2-3.2H385.6z"/>
			</g>
		</g>
		<g>
			<g>
				<path class="st6" d="M413.3,122.4h-18.8c-2.1,0-8.3-5.3-6.3-5.3h31.3C421.6,117.1,415.3,122.4,413.3,122.4z"/>
			</g>
			<g>
				<path class="st7" d="M413.3,123.4h-18.8c-2,0-7.6-4.1-7.6-6c0-0.6,0.4-1.3,1.4-1.3h31.3c1,0,1.4,0.7,1.4,1.3
					C420.9,119.2,415.3,123.4,413.3,123.4z M389.4,118c1.3,1.3,4.1,3.4,5.1,3.4h18.8c0.9,0,3.8-2,5.1-3.4H389.4z"/>
			</g>
		</g>
		<g>
			<g>
				<g>
					<path class="st1" d="M401.3,99.1h-2.9V75.9c-6.2-1.9-10.3-6.2-10.5-6.5c-2.5-2.6-3.3-5-2.6-7c1.2-3.2,6.1-3.8,6.6-3.9l0.1,0
						c2.8,0,5.1,1,6.7,2.9c2.9,3.4,3,9,2.8,12.1c0.8,0.1,1.7,0.2,2.6,0.3c0.7,0,1.4,0,2-0.1c0.1-6.4,1.6-10.8,4.3-13.3
						c2.2-2,4.4-1.9,5-1.9c0.9,0,6.1,0.2,7.5,3.4c0.9,2.1,0,4.5-2.8,7.5c-5,5-10.5,7.5-16.2,7.4c-1,0-1.9-0.1-2.8-0.2V99.1z
						 M415.2,61.5c-0.3,0-1.5,0.1-2.8,1.2c-1.4,1.3-3,4.2-3.3,10.4c3.1-1,6.1-2.9,9-5.8c1.7-1.8,2.5-3.4,2.2-4.2
						c-0.5-1.1-3.4-1.6-4.9-1.6L415.2,61.5C415.3,61.5,415.2,61.5,415.2,61.5z M392.1,61.5c-1.2,0.1-3.7,0.8-4.1,2
						c-0.3,0.8,0.4,2.3,2,3.9c0,0,3.5,3.6,8.6,5.5c0.1-2.7,0-7-2.1-9.5C395.4,62.2,394,61.6,392.1,61.5z"/>
				</g>
			</g>
			<g>
				<g>
					<rect x="406.2" y="75.7" class="st1" width="2.9" height="23.4"/>
				</g>
			</g>
		</g>
	</g>
</g>
</svg>
