<?xml version="1.0" encoding="utf-8"?>
<!-- Generator: Adobe Illustrator 22.1.0, SVG Export Plug-In . SVG Version: 6.00 Build 0)  -->
<svg version="1.1" id="Layer_1" xmlns="http://www.w3.org/2000/svg" xmlns:xlink="http://www.w3.org/1999/xlink" x="0px" y="0px"
	 viewBox="0 0 750 700" style="enable-background:new 0 0 750 700;" xml:space="preserve">
<style type="text/css">
	.st0{fill:#009ECC;}
	.st1{fill:#0052A3;}
	.st2{fill:#61BAE3;}
	.st3{fill:#6B8AC2;}
	.st4{fill:#ADBFDE;}
	.st5{fill:#60BAE3;}
	.st6{fill:#FFFFFF;}
	.st7{fill:none;stroke:#FFFFFF;stroke-width:0.249;stroke-miterlimit:10;}
	.st8{fill:#0F9BDC;}
	.st9{fill:#254B7C;}
</style>
<g>
	<g>
		<path class="st0" d="M728.2,573L166.3,363c-10.1-3.8-15.2-15-11.4-25.1L299.5-48.8c3.8-10.1,15-15.2,25.1-11.4l561.9,210.1
			c10.1,3.8,15.2,15,11.4,25.1L753.2,561.6C749.5,571.7,738.2,576.8,728.2,573"/>
	</g>
	<g>
		<path class="st1" d="M524.1,515.5l-166-62.1c-10.1-3.8-15.2-15-11.4-25.1c3.8-10.1,15-15.2,25.1-11.4l166,62.1
			c10.1,3.8,15.2,15,11.4,25.1C545.4,514.1,534.2,519.2,524.1,515.5"/>
	</g>
	<g>
		<path class="st2" d="M772.1,566.6l-230-86c-3.6,6.9-11.7,10.2-19.2,7.4L377,433.4c-7.4-2.8-11.4-10.6-9.6-18.2l-230-86
			c-10.1-3.8-21.3,1.3-25.1,11.4c-3.8,10.1,1.3,21.3,11.4,25.1l634.8,237.4c10.1,3.8,21.3-1.3,25.1-11.4
			C787.3,581.6,782.2,570.4,772.1,566.6"/>
	</g>
	<g>
		<path class="st3" d="M865,195.9l-120,321c-3.8,10.1-15,15.2-25.1,11.4L201.8,334.7c-8.7-3.2-13.7-12.1-12.5-20.9
			c0.2-1.4,0.5-2.8,1.1-4.2l120-321.1c3.8-10.1,15-15.2,25.1-11.4l518.1,193.7C863.7,174.6,868.8,185.8,865,195.9"/>
	</g>
	<g>
		<path class="st1" d="M605.1,62.3c-0.9,2.5-3.7,3.8-6.3,2.9c-2.5-0.9-3.8-3.7-2.9-6.3c0.9-2.5,3.7-3.8,6.3-2.9
			C604.8,57,606.1,59.8,605.1,62.3"/>
	</g>
	<g>
		<path class="st4" d="M661.1,98.8L434,13.9L273.6,87l-83.2,222.6c-0.5,1.4-0.9,2.8-1.1,4.2L661.1,98.8z"/>
	</g>
</g>
<polygon class="st4" points="748.8,131.6 707.5,116.2 216.3,340.1 257.6,355.5 "/>
<g>
	<g>
		<path class="st5" d="M731.6,433.9c1.1-85.8-68.3-152.6-152.6-152.6s-153.6,66.8-152.6,152.6c1.1,85.8,77.4,95.4,77.4,152.6
			s152.6,57.2,152.6,0S730.5,519.7,731.6,433.9"/>
	</g>
	<g>
		<path class="st5" d="M504.5,611.8h151.1c0.4,0,0.8-0.3,0.8-0.8v-23.8c0-0.4-0.3-0.8-0.8-0.8H504.5c-0.4,0-0.8,0.3-0.8,0.8V611
			C503.8,611.4,504.1,611.8,504.5,611.8"/>
	</g>
	<g>
		<path class="st6" d="M518.1,618.4h124c9.7,0,17.6-7.9,17.6-17.6c0-9.7-7.9-17.6-17.6-17.6h-124c-9.7,0-17.6,7.9-17.6,17.6
			C500.4,610.5,508.3,618.4,518.1,618.4 M642,589.8c6.1,0,11,4.9,11,11s-4.9,11-11,11H518c-6.1,0-11-4.9-11-11s4.9-11,11-11H642z"/>
	</g>
	<g>
		<path class="st7" d="M518.1,618.4h124c9.7,0,17.6-7.9,17.6-17.6c0-9.7-7.9-17.6-17.6-17.6h-124c-9.7,0-17.6,7.9-17.6,17.6
			C500.4,610.5,508.3,618.4,518.1,618.4z M642,589.8c6.1,0,11,4.9,11,11s-4.9,11-11,11H518c-6.1,0-11-4.9-11-11s4.9-11,11-11H642z"
			/>
	</g>
	<g>
		<path class="st8" d="M504.5,640.4h151.1c0.4,0,0.8-0.3,0.8-0.8v-20.2c0-0.4-0.3-0.8-0.8-0.8H504.5c-0.4,0-0.8,0.3-0.8,0.8v20.2
			C503.8,640,504.1,640.4,504.5,640.4"/>
	</g>
	<g>
		<path class="st6" d="M518.1,647h124c9.7,0,17.6-7.9,17.6-17.6c0-9.7-7.9-17.6-17.6-17.6h-124c-9.7,0-17.6,7.9-17.6,17.6
			C500.4,639.1,508.3,647,518.1,647 M642,618.4c6.1,0,11,4.9,11,11s-4.9,11-11,11H518c-6.1,0-11-4.9-11-11s4.9-11,11-11H642z"/>
	</g>
	<g>
		<path class="st7" d="M518.1,647h124c9.7,0,17.6-7.9,17.6-17.6c0-9.7-7.9-17.6-17.6-17.6h-124c-9.7,0-17.6,7.9-17.6,17.6
			C500.4,639.1,508.3,647,518.1,647z M642,618.4c6.1,0,11,4.9,11,11s-4.9,11-11,11H518c-6.1,0-11-4.9-11-11s4.9-11,11-11H642z"/>
	</g>
	<g>
		<path class="st9" d="M548.3,661.7h63.6c7,0,28.2-18,21.2-18h-106C520.1,643.7,541.3,661.7,548.3,661.7"/>
	</g>
	<g>
		<path class="st6" d="M548.3,665h63.6c6.8,0,25.9-14,25.9-20.4c0-2.1-1.5-4.3-4.7-4.3h-106c-3.2,0-4.7,2.2-4.7,4.3
			C522.4,651,541.4,665,548.3,665 M629,647c-4.4,4.5-14,11.4-17.2,11.4h-63.6c-3.2,0-12.8-6.9-17.2-11.4H629z"/>
	</g>
	<g>
		<path class="st6" d="M588.8,582.8h10v-78.7c21.1-6.6,34.9-21.1,35.7-21.9c8.4-8.9,11.4-16.9,8.8-23.7c-4.1-11-20.6-12.9-22.5-13.1
			h-0.5c-9.6,0-17.2,3.3-22.8,9.9c-9.8,11.6-10.1,30.5-9.4,41.1c-2.9,0.5-5.8,0.8-8.9,0.9c-2.3,0-4.6-0.1-6.9-0.3
			c-0.5-21.6-5.4-36.7-14.7-45.1c-7.5-6.7-15-6.6-16.9-6.5c-3,0-20.7,0.7-25.4,11.5c-3,7,0,15.2,9.4,25.3c17,17,35.5,25.5,54.8,25.1
			c3.2-0.1,6.4-0.3,9.4-0.8L588.8,582.8L588.8,582.8z M541.8,455.4c1.1,0,5.2,0.3,9.4,4.2c4.8,4.4,10.3,14.2,11.1,35.3
			c-10.5-3.3-20.7-9.8-30.5-19.6c-5.8-6.2-8.6-11.7-7.4-14.4c1.7-3.9,11.6-5.5,16.5-5.5h0.6C541.5,455.4,541.6,455.4,541.8,455.4
			 M620,455.4c4,0.5,12.4,2.6,13.9,6.6c1.1,2.8-1.4,7.7-6.7,13.4c-0.2,0.2-11.8,12.4-29.3,18.5c-0.5-9.3,0.1-23.8,7.2-32.1
			C608.7,457.6,613.6,455.5,620,455.4"/>
	</g>
	<g>
		<rect x="562.4" y="503.4" class="st6" width="10" height="79.4"/>
	</g>
</g>
</svg>
