<?xml version="1.0" encoding="utf-8"?>
<!-- Generator: Adobe Illustrator 22.1.0, SVG Export Plug-In . SVG Version: 6.00 Build 0)  -->
<svg version="1.1" id="Layer_1" xmlns="http://www.w3.org/2000/svg" xmlns:xlink="http://www.w3.org/1999/xlink" x="0px" y="0px"
	 viewBox="0 0 550 158" style="enable-background:new 0 0 550 158;" xml:space="preserve">
<style type="text/css">
	.st0{fill:none;}
	.st1{enable-background:new    ;}
	.st2{fill:#009DCB;}
	.st3{fill:#60BAE3;}
	.st4{fill:#0052A2;}
	.st5{fill:#FFFDC7;}
	.st6{fill:#FFFFFF;}
	.st7{fill:#0F9BDC;}
	.st8{fill:#254B7C;}
</style>
<g>
	<g>
		<rect x="67.5" y="50.3" class="st0" width="485.5" height="89.7"/>
	</g>
	<g class="st1">
		<path class="st2" d="M106.5,124.3V93.7c0-5.6-0.8-9.5-2.5-11.8c-1.7-2.2-4.5-3.4-8.5-3.4c-2.1,0-4.4,0.6-6.7,1.9
			c-2.3,1.3-4.1,2.8-5.3,4.7v39.1h-9.3V71.8h6.4l2.9,6.8c3.1-5.2,8.1-7.8,15.1-7.8c11.5,0,17.3,7,17.3,21v32.5H106.5z"/>
	</g>
	<g class="st1">
		<path class="st2" d="M125.6,97.9c0-8.1,2.2-14.7,6.6-19.6c4.4-5,10.1-7.5,17.2-7.5c7.5,0,13.4,2.4,17.5,7.2
			c4.2,4.8,6.2,11.4,6.2,19.9c0,8.5-2.1,15.2-6.4,20c-4.3,4.9-10,7.3-17.4,7.3c-7.5,0-13.3-2.5-17.5-7.4
			C127.7,112.9,125.6,106.3,125.6,97.9z M135.4,97.9c0,13.2,4.7,19.8,14,19.8c4.3,0,7.8-1.8,10.2-5.3c2.5-3.5,3.7-8.4,3.7-14.5
			c0-13-4.6-19.5-13.9-19.5c-4.3,0-7.6,1.7-10.2,5.2C136.7,87.1,135.4,91.8,135.4,97.9z"/>
	</g>
	<g class="st1">
		<path class="st3" d="M231.5,125.3h-2.5l-15.4-35.8l-15.4,35.8h-2.5l-18.8-53.7h10l11.2,34.5l14-34.5h2.5l14.4,34.5l12.1-34.5h9.2
			L231.5,125.3z"/>
		<path class="st3" d="M255.8,138.7l5.1-7.5c5.4,3.6,10.4,5.4,15,5.4c4.2,0,7.5-0.7,10-2.2c2.4-1.5,3.7-3.3,3.7-5.4
			c0-4.3-3.1-6.4-9.2-6.4c-1,0-2.9,0.3-5.7,0.8c-2.7,0.5-4.9,0.8-6.4,0.8c-7.5,0-11.2-2.8-11.2-8.4c0-1.7,0.9-3.3,2.6-4.7
			c1.7-1.4,3.9-2.4,6.5-3c-7.4-3.5-11.1-9.5-11.1-18.1c0-5.5,1.9-10.1,5.7-13.7c3.8-3.7,8.6-5.5,14.2-5.5c5.2,0,9.2,1.1,12.1,3.2
			l4.7-5.6l6.1,5.7l-5.6,4.2c2.4,3.1,3.6,7.2,3.6,12.2c0,5.3-1.7,9.7-5,13.3c-3.3,3.6-7.6,5.7-13,6.2l-7.7,0.8
			c-0.9,0.1-2.1,0.5-3.7,1.1c-1.5,0.6-2.3,1.4-2.3,2.4c0,1.3,1.6,2,4.8,2c1.4,0,3.6-0.3,6.6-0.8c3-0.5,5.2-0.8,6.6-0.8
			c5.2,0,9.2,1.2,12.1,3.7c2.9,2.5,4.3,5.9,4.3,10.3c0,4.8-2.2,8.7-6.5,11.7s-9.8,4.5-16.5,4.5c-3.4,0-7-0.6-10.7-1.8
			C261.1,141.9,258.1,140.4,255.8,138.7z M275.6,78.3c-3.2,0-5.9,1.1-7.9,3.4c-2,2.3-3.1,5.1-3.1,8.3c0,3.7,1,6.7,3,9.1
			c2,2.4,4.7,3.6,8,3.6c3.3,0,5.9-1.2,7.8-3.5c1.9-2.3,2.8-5.4,2.8-9.2c0-3.3-1-6.1-3-8.3C281.1,79.4,278.6,78.3,275.6,78.3z"/>
	</g>
	<g class="st1">
		<path class="st4" d="M308.9,109.4V50.2h9.3v57.6c0,2.8,0.8,5,2.4,6.6s3.7,2.4,6.4,2.4v8.3C314.9,125.3,308.9,120,308.9,109.4z"/>
		<path class="st4" d="M382,98.9h-37.9c0,6.2,1.7,10.9,5.1,14.2c3,2.9,6.8,4.3,11.5,4.3c5.3,0,9.8-1.6,13.3-4.7l3.9,6.7
			c-1.4,1.4-3.6,2.7-6.6,3.7c-3.7,1.4-7.9,2.1-12.5,2.1c-6.6,0-12.2-2.2-16.8-6.7c-5.1-4.9-7.7-11.6-7.7-19.9
			c0-8.7,2.6-15.6,7.9-20.9c4.7-4.7,10.3-7,16.7-7c7.5,0,13.4,2.1,17.6,6.3c4.1,4.1,6.2,9.4,6.2,16.1
			C382.8,95.3,382.5,97.2,382,98.9z M359.4,78.6c-4.2,0-7.6,1.3-10.5,4c-2.7,2.6-4.2,5.7-4.6,9.5h29.1c0-3.8-1.2-6.9-3.5-9.4
			C367.4,80,363.9,78.6,359.4,78.6z"/>
		<path class="st4" d="M395.9,79.1h-6.1v-7.4h6.1v-11l9.3-3.6v14.6h14.4v7.4h-14.4v26.1c0,4.4,0.7,7.6,2.2,9.4
			c1.5,1.9,3.9,2.8,7.2,2.8c2.4,0,4.9-0.6,7.4-1.8l1.4,8.2c-3.9,1-8.1,1.5-12.7,1.5c-4.2,0-7.7-1.5-10.5-4.6
			c-2.9-3.1-4.3-7-4.3-11.7V79.1z"/>
	</g>
	<g>
		<rect x="-3" y="25.7" class="st0" width="105.9" height="112.1"/>
	</g>
	<g class="st1">
		<path class="st2" d="M51.1,124.5l-22-35.1l-10.9,11.2v23.9H5.8V25.7h12.4V87l26.8-32.6h14.5L37.2,81l27.4,43.4H51.1z"/>
	</g>
	<g>
		<g>
			<g>
				<path class="st5" d="M444.1,59.3c-0.4-29.1,23.1-51.6,51.6-51.6s52,22.6,51.6,51.6c-0.4,29.1-26.2,32.3-26.2,51.6
					s-51.6,19.4-51.6,0S444.5,88.3,444.1,59.3z"/>
			</g>
		</g>
		<g>
			<g>
				<path class="st3" d="M518.7,120.6h-47.4c-0.7,0-1.4-0.6-1.4-1.4v-7c0-0.7,0.6-1.4,1.4-1.4h47.4c0.7,0,1.4,0.6,1.4,1.4v7
					C520.1,120,519.5,120.6,518.7,120.6z"/>
			</g>
			<g>
				<path class="st6" d="M516.4,121.7h-42c-3.3,0-6-2.7-6-6s2.7-6,6-6h42c3.3,0,6,2.7,6,6C522.4,119.1,519.7,121.7,516.4,121.7z
					 M474.4,112c-2.1,0-3.7,1.7-3.7,3.7c0,2.1,1.7,3.7,3.7,3.7h42c2.1,0,3.7-1.7,3.7-3.7c0-2.1-1.7-3.7-3.7-3.7H474.4z"/>
			</g>
		</g>
		<g>
			<g>
				<path class="st7" d="M519.3,130.3h-47.8c-0.7,0-1.4-0.6-1.4-1.4v-7c0-0.7,0.6-1.4,1.4-1.4h47.8c0.7,0,1.4,0.6,1.4,1.4v7
					C520.7,129.7,520.1,130.3,519.3,130.3z"/>
			</g>
			<g>
				<path class="st6" d="M516.4,131.4h-42c-3.3,0-6-2.7-6-6s2.7-6,6-6h42c3.3,0,6,2.7,6,6S519.7,131.4,516.4,131.4z M474.4,121.7
					c-2.1,0-3.7,1.7-3.7,3.7c0,2.1,1.7,3.7,3.7,3.7h42c2.1,0,3.7-1.7,3.7-3.7c0-2.1-1.7-3.7-3.7-3.7H474.4z"/>
			</g>
		</g>
		<g>
			<g>
				<path class="st8" d="M506.2,136.4h-21.5c-2.4,0-9.5-6.1-7.2-6.1h35.9C515.7,130.3,508.5,136.4,506.2,136.4z"/>
			</g>
			<g>
				<path class="st6" d="M506.2,137.5h-21.5c-2.3,0-8.8-4.7-8.8-6.9c0-0.7,0.5-1.4,1.6-1.4h35.9c1.1,0,1.6,0.7,1.6,1.4
					C514.9,132.8,508.5,137.5,506.2,137.5z M478.8,131.4c1.5,1.5,4.7,3.9,5.8,3.9h21.5c1.1,0,4.3-2.3,5.8-3.9H478.8z"/>
			</g>
		</g>
		<g>
			<g>
				<g>
					<path class="st3" d="M492.4,109.7H489V83.1c-7.1-2.2-11.8-7.1-12.1-7.4c-2.8-3-3.8-5.7-3-8c1.4-3.7,7-4.4,7.6-4.4h0.2
						c3.2,0,5.8,1.1,7.7,3.4c3.3,3.9,3.4,10.3,3.2,13.9c1,0.2,2,0.3,3,0.3c0.8,0,1.6,0,2.3-0.1c0.2-7.3,1.8-12.4,5-15.3
						c2.5-2.3,5.1-2.2,5.7-2.2c1,0,7,0.2,8.6,3.9c1,2.4,0,5.2-3.2,8.6c-5.8,5.8-12,8.6-18.5,8.5c-1.1,0-2.2-0.1-3.2-0.3v25.7H492.4z
						 M508.4,66.6c-0.4,0-1.8,0.1-3.2,1.4c-1.6,1.5-3.5,4.8-3.8,12c3.6-1.1,7-3.3,10.3-6.6c2-2.1,2.9-4,2.5-4.9
						c-0.6-1.3-3.9-1.9-5.6-1.9H508.4C508.5,66.6,508.4,66.6,508.4,66.6z M481.9,66.6c-1.4,0.2-4.2,0.9-4.7,2.2
						c-0.4,1,0.5,2.6,2.3,4.5c0.1,0.1,4,4.2,9.9,6.3c0.2-3.1,0-8-2.4-10.9C485.7,67.3,484.1,66.6,481.9,66.6z"/>
				</g>
			</g>
			<g>
				<g>
					<rect x="498" y="82.8" class="st3" width="3.4" height="26.9"/>
				</g>
			</g>
		</g>
	</g>
</g>
</svg>
