<?xml version="1.0" encoding="utf-8"?>
<!-- Generator: Adobe Illustrator 22.1.0, SVG Export Plug-In . SVG Version: 6.00 Build 0)  -->
<svg version="1.1" id="Layer_1" xmlns="http://www.w3.org/2000/svg" xmlns:xlink="http://www.w3.org/1999/xlink" x="0px" y="0px"
	 viewBox="0 0 90 116" style="enable-background:new 0 0 90 116;" xml:space="preserve">
<style type="text/css">
	.st0{clip-path:url(#SVGID_2_);fill:#60BAE3;}
	.st1{clip-path:url(#SVGID_2_);fill:#FFFFFF;}
	.st2{clip-path:url(#SVGID_2_);fill:none;stroke:#FFFFFF;stroke-width:0.249;stroke-miterlimit:10;}
	.st3{clip-path:url(#SVGID_2_);fill:#0F9BDC;}
	.st4{clip-path:url(#SVGID_2_);fill:#254B7C;}
</style>
<g>
	<defs>
		<rect id="SVGID_1_" x="2" y="5.6" width="86" height="107.4"/>
	</defs>
	<clipPath id="SVGID_2_">
		<use xlink:href="#SVGID_1_"  style="overflow:visible;"/>
	</clipPath>
	<path class="st0" d="M87.7,48.3C88,24.3,68.6,5.6,45,5.6C21.4,5.6,2,24.3,2.3,48.3S23.9,75,23.9,91s42.7,16,42.7,0
		S87.4,72.3,87.7,48.3"/>
	<path class="st0" d="M24.2,98.1h42.3c0.1,0,0.2-0.1,0.2-0.2v-6.7c0-0.1-0.1-0.2-0.2-0.2H24.2c-0.1,0-0.2,0.1-0.2,0.2v6.7
		C23.9,98,24,98.1,24.2,98.1"/>
	<path class="st1" d="M27.9,99.9h34.7c2.7,0,4.9-2.2,4.9-4.9c0-2.7-2.2-4.9-4.9-4.9H27.9c-2.7,0-4.9,2.2-4.9,4.9
		C23,97.7,25.2,99.9,27.9,99.9 M62.6,91.9c1.7,0,3.1,1.4,3.1,3.1c0,1.7-1.4,3.1-3.1,3.1H27.9c-1.7,0-3.1-1.4-3.1-3.1
		c0-1.7,1.4-3.1,3.1-3.1H62.6z"/>
	<path class="st2" d="M27.9,99.9h34.7c2.7,0,4.9-2.2,4.9-4.9c0-2.7-2.2-4.9-4.9-4.9H27.9c-2.7,0-4.9,2.2-4.9,4.9
		C23,97.7,25.2,99.9,27.9,99.9z M62.6,91.9c1.7,0,3.1,1.4,3.1,3.1c0,1.7-1.4,3.1-3.1,3.1H27.9c-1.7,0-3.1-1.4-3.1-3.1
		c0-1.7,1.4-3.1,3.1-3.1H62.6z"/>
	<path class="st3" d="M24.2,106.1h42.3c0.1,0,0.2-0.1,0.2-0.2v-5.7c0-0.1-0.1-0.2-0.2-0.2H24.2c-0.1,0-0.2,0.1-0.2,0.2v5.7
		C23.9,106,24,106.1,24.2,106.1"/>
	<path class="st1" d="M27.9,107.9h34.7c2.7,0,4.9-2.2,4.9-4.9c0-2.7-2.2-4.9-4.9-4.9H27.9c-2.7,0-4.9,2.2-4.9,4.9
		C23,105.7,25.2,107.9,27.9,107.9 M62.6,99.9c1.7,0,3.1,1.4,3.1,3.1c0,1.7-1.4,3.1-3.1,3.1H27.9c-1.7,0-3.1-1.4-3.1-3.1
		c0-1.7,1.4-3.1,3.1-3.1H62.6z"/>
	<path class="st2" d="M27.9,107.9h34.7c2.7,0,4.9-2.2,4.9-4.9c0-2.7-2.2-4.9-4.9-4.9H27.9c-2.7,0-4.9,2.2-4.9,4.9
		C23,105.7,25.2,107.9,27.9,107.9z M62.6,99.9c1.7,0,3.1,1.4,3.1,3.1c0,1.7-1.4,3.1-3.1,3.1H27.9c-1.7,0-3.1-1.4-3.1-3.1
		c0-1.7,1.4-3.1,3.1-3.1H62.6z"/>
	<path class="st4" d="M36.4,112.1h17.8c2,0,7.9-5,5.9-5H30.5C28.5,107,34.4,112.1,36.4,112.1"/>
	<path class="st1" d="M36.4,113h17.8c1.9,0,7.2-3.9,7.2-5.7c0-0.6-0.4-1.2-1.3-1.2H30.5c-0.9,0-1.3,0.6-1.3,1.2
		C29.2,109.1,34.5,113,36.4,113 M59,107.9c-1.2,1.3-3.9,3.2-4.8,3.2H36.4c-0.9,0-3.6-1.9-4.8-3.2H59z"/>
	<path class="st1" d="M47.8,90h2.8V68c5.9-1.8,9.8-5.9,10-6.1c2.3-2.5,3.2-4.7,2.5-6.6c-1.2-3.1-5.8-3.6-6.3-3.7l-0.1,0
		c-2.7,0-4.8,0.9-6.4,2.8c-2.7,3.3-2.8,8.5-2.6,11.5c-0.8,0.1-1.6,0.2-2.5,0.2c-0.7,0-1.3,0-1.9-0.1c-0.1-6-1.5-10.3-4.1-12.6
		c-2.1-1.9-4.2-1.8-4.7-1.8c-0.8,0-5.8,0.2-7.1,3.2c-0.8,1.9,0,4.3,2.6,7.1c4.8,4.8,9.9,7.1,15.3,7c0.9,0,1.8-0.1,2.6-0.2V90z
		 M34.6,54.3c0.3,0,1.5,0.1,2.6,1.2c1.3,1.2,2.9,4,3.1,9.9c-2.9-0.9-5.8-2.8-8.5-5.5c-1.6-1.7-2.4-3.3-2.1-4
		c0.5-1.1,3.2-1.5,4.6-1.5L34.6,54.3C34.5,54.3,34.5,54.3,34.6,54.3 M56.5,54.3c1.1,0.1,3.5,0.7,3.9,1.9c0.3,0.8-0.4,2.2-1.9,3.7
		c0,0-3.3,3.5-8.2,5.2c-0.1-2.6,0-6.6,2-9C53.3,54.9,54.7,54.4,56.5,54.3"/>
	<rect x="40.3" y="67.8" class="st1" width="2.8" height="22.2"/>
</g>
</svg>
