<?xml version="1.0" encoding="utf-8"?>
<!-- Generator: Adobe Illustrator 22.1.0, SVG Export Plug-In . SVG Version: 6.00 Build 0)  -->
<svg version="1.1" id="Layer_1" xmlns="http://www.w3.org/2000/svg" xmlns:xlink="http://www.w3.org/1999/xlink" x="0px" y="0px"
	 viewBox="0 0 29 38" style="enable-background:new 0 0 29 38;" xml:space="preserve">
<style type="text/css">
	.st0{clip-path:url(#SVGID_2_);fill:#61B9E2;}
	.st1{clip-path:url(#SVGID_4_);fill:none;stroke:#FFFFFF;stroke-width:0.6;stroke-miterlimit:10;}
	.st2{clip-path:url(#SVGID_6_);fill:#61B9E2;}
	.st3{fill:#61B9E2;}
</style>
<g>
	<g>
		<defs>
			<rect id="SVGID_1_" x="0.1" y="5.1" width="28.8" height="28.8"/>
		</defs>
		<clipPath id="SVGID_2_">
			<use xlink:href="#SVGID_1_"  style="overflow:visible;"/>
		</clipPath>
		<path class="st0" d="M22.9,27.9c-2.3,2.3-5.3,3.5-8.4,3.5s-6.2-1.3-8.4-3.5c-4.6-4.6-4.6-12.2,0-17c2.3-2.3,5.3-3.5,8.4-3.5
			s6.2,1.3,8.4,3.5l0,0c2.3,2.3,3.5,5.3,3.5,8.4C26.5,22.7,25.2,25.7,22.9,27.9 M24.5,9.5c-2.8-2.8-6.5-4.2-10-4.2s-7.3,1.4-10,4.2
			C-1.1,15-1.1,24,4.5,29.5c2.8,2.8,6.5,4.2,10,4.2s7.3-1.4,10-4.2C30.1,24,30.1,15,24.5,9.5"/>
	</g>
	<g>
		<defs>
			<rect id="SVGID_3_" x="0.1" y="5.1" width="28.8" height="28.8"/>
		</defs>
		<clipPath id="SVGID_4_">
			<use xlink:href="#SVGID_3_"  style="overflow:visible;"/>
		</clipPath>
		<path class="st1" d="M22.9,27.9c-2.3,2.3-5.3,3.5-8.4,3.5s-6.2-1.3-8.4-3.5c-4.6-4.6-4.6-12.2,0-17c2.3-2.3,5.3-3.5,8.4-3.5
			s6.2,1.3,8.4,3.5l0,0c2.3,2.3,3.5,5.3,3.5,8.4C26.5,22.7,25.2,25.7,22.9,27.9z M24.5,9.5c-2.8-2.8-6.5-4.2-10-4.2s-7.3,1.4-10,4.2
			C-1.1,15-1.1,24,4.5,29.5c2.8,2.8,6.5,4.2,10,4.2s7.3-1.4,10-4.2C30.1,24,30.1,15,24.5,9.5z"/>
	</g>
	<g>
		<defs>
			<rect id="SVGID_5_" x="0.1" y="5.1" width="28.8" height="28.8"/>
		</defs>
		<clipPath id="SVGID_6_">
			<use xlink:href="#SVGID_5_"  style="overflow:visible;"/>
		</clipPath>
		<path class="st2" d="M14.5,12c-1.2,0-2.1,0.9-2.1,2.1s0.9,2.1,2.1,2.1s2.1-0.9,2.1-2.1S15.7,12,14.5,12"/>
	</g>
</g>
<rect x="12.7" y="17.7" class="st3" width="3.8" height="9.3"/>
</svg>
