<?xml version="1.0" encoding="utf-8"?>
<!-- Generator: Adobe Illustrator 22.1.0, SVG Export Plug-In . SVG Version: 6.00 Build 0)  -->
<svg version="1.1" id="Layer_1" xmlns="http://www.w3.org/2000/svg" xmlns:xlink="http://www.w3.org/1999/xlink" x="0px" y="0px"
	 viewBox="0 0 297 85" style="enable-background:new 0 0 297 85;" xml:space="preserve">
<style type="text/css">
	.st0{fill:none;}
	.st1{enable-background:new    ;}
	.st2{fill:#009DCB;}
	.st3{fill:#60BAE3;}
	.st4{fill:#0052A2;}
	.st5{fill:#FFFFFF;}
	.st6{fill:#0F9BDC;}
	.st7{fill:#254B7C;}
</style>
<g>
	<g>
		<rect x="33.8" y="29.6" class="st0" width="266.2" height="49.2"/>
	</g>
	<g class="st1">
		<path class="st2" d="M55.1,70.2V53.4c0-3.1-0.5-5.2-1.4-6.4c-0.9-1.2-2.5-1.8-4.6-1.8c-1.2,0-2.4,0.3-3.7,1
			c-1.3,0.7-2.3,1.6-2.9,2.6v21.4h-5.1V41.4h3.5l1.6,3.7c1.7-2.8,4.4-4.2,8.3-4.2c6.3,0,9.5,3.8,9.5,11.5v17.8H55.1z"/>
	</g>
	<g class="st1">
		<path class="st2" d="M65.6,55.7c0-4.4,1.2-8,3.6-10.8c2.4-2.7,5.5-4.1,9.5-4.1c4.1,0,7.3,1.3,9.6,3.9c2.3,2.6,3.4,6.3,3.4,10.9
			c0,4.6-1.2,8.3-3.5,11c-2.3,2.7-5.5,4-9.5,4c-4.1,0-7.3-1.4-9.6-4.1C66.8,64,65.6,60.3,65.6,55.7z M71,55.7
			c0,7.2,2.6,10.8,7.7,10.8c2.4,0,4.3-1,5.6-2.9c1.4-1.9,2-4.6,2-7.9c0-7.1-2.5-10.7-7.6-10.7c-2.3,0-4.2,1-5.6,2.9
			C71.7,49.8,71,52.4,71,55.7z"/>
	</g>
	<g class="st1">
		<path class="st3" d="M123.7,70.7h-1.3l-8.4-19.6l-8.4,19.6h-1.3L93.9,41.3h5.5l6.2,18.9l7.7-18.9h1.3l7.9,18.9l6.6-18.9h5
			L123.7,70.7z"/>
		<path class="st3" d="M137,78.1l2.8-4.1c3,2,5.7,3,8.2,3c2.3,0,4.1-0.4,5.5-1.2c1.3-0.8,2-1.8,2-3c0-2.3-1.7-3.5-5.1-3.5
			c-0.6,0-1.6,0.1-3.1,0.4c-1.5,0.3-2.7,0.4-3.5,0.4c-4.1,0-6.1-1.5-6.1-4.6c0-1,0.5-1.8,1.4-2.6c1-0.8,2.1-1.3,3.6-1.7
			c-4.1-1.9-6.1-5.2-6.1-9.9c0-3,1-5.5,3.1-7.5c2.1-2,4.7-3,7.8-3c2.8,0,5,0.6,6.6,1.7l2.6-3.1l3.3,3.1L157,45c1.3,1.7,2,3.9,2,6.7
			c0,2.9-0.9,5.3-2.7,7.3c-1.8,2-4.2,3.1-7.1,3.4l-4.2,0.4c-0.5,0.1-1.2,0.2-2,0.6s-1.3,0.8-1.3,1.3c0,0.7,0.9,1.1,2.6,1.1
			c0.8,0,2-0.1,3.6-0.4c1.6-0.3,2.8-0.4,3.6-0.4c2.8,0,5,0.7,6.6,2c1.6,1.4,2.4,3.2,2.4,5.6c0,2.7-1.2,4.8-3.6,6.4
			c-2.4,1.6-5.4,2.4-9,2.4c-1.9,0-3.8-0.3-5.9-1S138.3,79,137,78.1z M147.9,45c-1.8,0-3.2,0.6-4.3,1.9c-1.1,1.3-1.7,2.8-1.7,4.6
			c0,2,0.5,3.7,1.6,5c1.1,1.3,2.6,2,4.4,2c1.8,0,3.2-0.6,4.2-1.9s1.5-3,1.5-5c0-1.8-0.6-3.3-1.7-4.6C150.9,45.6,149.5,45,147.9,45z"
			/>
	</g>
	<g class="st1">
		<path class="st4" d="M166.1,62V29.6h5.1v31.6c0,1.5,0.4,2.8,1.3,3.6s2,1.3,3.5,1.3v4.6C169.4,70.7,166.1,67.8,166.1,62z"/>
		<path class="st4" d="M206.2,56.3h-20.8c0,3.4,0.9,6,2.8,7.8c1.6,1.6,3.7,2.4,6.3,2.4c2.9,0,5.4-0.9,7.3-2.6l2.2,3.7
			c-0.8,0.8-2,1.5-3.6,2c-2,0.8-4.3,1.1-6.8,1.1c-3.6,0-6.7-1.2-9.2-3.7c-2.8-2.7-4.2-6.3-4.2-10.9c0-4.8,1.4-8.6,4.3-11.4
			c2.6-2.6,5.6-3.8,9.2-3.8c4.1,0,7.3,1.2,9.7,3.5c2.3,2.2,3.4,5.2,3.4,8.8C206.6,54.3,206.5,55.3,206.2,56.3z M193.8,45.1
			c-2.3,0-4.2,0.7-5.7,2.2c-1.5,1.4-2.3,3.1-2.5,5.2h16c0-2.1-0.6-3.8-1.9-5.2C198.2,45.9,196.2,45.1,193.8,45.1z"/>
		<path class="st4" d="M213.8,45.4h-3.3v-4h3.3v-6l5.1-2v8h7.9v4h-7.9v14.3c0,2.4,0.4,4.1,1.2,5.2c0.8,1,2.1,1.5,3.9,1.5
			c1.3,0,2.7-0.3,4.1-1l0.8,4.5c-2.1,0.5-4.4,0.8-7,0.8c-2.3,0-4.2-0.8-5.8-2.5c-1.6-1.7-2.4-3.8-2.4-6.4V45.4z"/>
	</g>
	<g>
		<rect x="-4.9" y="16.1" class="st0" width="58.1" height="61.4"/>
	</g>
	<g class="st1">
		<path class="st2" d="M24.8,70.3L12.7,51.1l-6,6.1v13.1h-6.8V16.1h6.8v33.6l14.7-17.9h8L17.1,46.5l15,23.8H24.8z"/>
	</g>
	<g>
		<g>
			<g>
				<path class="st3" d="M240.2,34.5C240,18.6,252.9,6.2,268.6,6.2s28.5,12.4,28.3,28.3s-14.4,17.7-14.4,28.3s-28.3,10.6-28.3,0
					S240.4,50.5,240.2,34.5z"/>
			</g>
		</g>
		<g>
			<g>
				<path class="st3" d="M281.2,68.2h-25.6c-0.7,0-1.4-0.6-1.4-1.4v-2.6c0-0.7,0.6-1.4,1.4-1.4h25.6c0.7,0,1.4,0.6,1.4,1.4v2.6
					C282.5,67.5,281.9,68.2,281.2,68.2z"/>
			</g>
			<g>
				<path class="st5" d="M279.9,68.8h-23c-1.8,0-3.3-1.5-3.3-3.3s1.5-3.3,3.3-3.3h23c1.8,0,3.3,1.5,3.3,3.3
					C283.2,67.3,281.7,68.8,279.9,68.8z M256.9,63.5c-1.1,0-2,0.9-2,2s0.9,2,2,2h23c1.1,0,2-0.9,2-2s-0.9-2-2-2H256.9z"/>
			</g>
		</g>
		<g>
			<g>
				<path class="st6" d="M281.2,73.5h-25.6c-0.7,0-1.4-0.6-1.4-1.4v-2.6c0-0.7,0.6-1.4,1.4-1.4h25.6c0.7,0,1.4,0.6,1.4,1.4v2.6
					C282.5,72.9,281.9,73.5,281.2,73.5z"/>
			</g>
			<g>
				<path class="st5" d="M279.9,74.1h-23c-1.8,0-3.3-1.5-3.3-3.3s1.5-3.3,3.3-3.3h23c1.8,0,3.3,1.5,3.3,3.3S281.7,74.1,279.9,74.1z
					 M256.9,68.8c-1.1,0-2,0.9-2,2s0.9,2,2,2h23c1.1,0,2-0.9,2-2s-0.9-2-2-2H256.9z"/>
			</g>
		</g>
		<g>
			<g>
				<path class="st7" d="M274.3,76.8h-11.8c-1.3,0-5.2-3.3-3.9-3.3h19.7C279.5,73.5,275.6,76.8,274.3,76.8z"/>
			</g>
			<g>
				<path class="st5" d="M274.3,77.4h-11.8c-1.3,0-4.8-2.6-4.8-3.8c0-0.4,0.3-0.8,0.9-0.8h19.7c0.6,0,0.9,0.4,0.9,0.8
					C279.1,74.8,275.5,77.4,274.3,77.4z M259.3,74.1c0.8,0.8,2.6,2.1,3.2,2.1h11.8c0.6,0,2.4-1.3,3.2-2.1H259.3z"/>
			</g>
		</g>
		<g>
			<g>
				<g>
					<path class="st5" d="M266.7,62.2h-1.8V47.6c-3.9-1.2-6.5-3.9-6.6-4.1c-1.6-1.6-2.1-3.1-1.6-4.4c0.8-2,3.8-2.4,4.2-2.4h0.1
						c1.8,0,3.2,0.6,4.2,1.8c1.8,2.2,1.9,5.7,1.7,7.6c0.5,0.1,1.1,0.2,1.7,0.2c0.4,0,0.9,0,1.3-0.1c0.1-4,1-6.8,2.7-8.4
						c1.4-1.2,2.8-1.2,3.1-1.2c0.6,0,3.8,0.1,4.7,2.1c0.6,1.3,0,2.8-1.7,4.7c-3.2,3.2-6.6,4.7-10.2,4.7c-0.6,0-1.2-0.1-1.8-0.2
						L266.7,62.2L266.7,62.2z M275.5,38.5c-0.2,0-1,0.1-1.7,0.8c-0.9,0.8-1.9,2.6-2.1,6.6c2-0.6,3.9-1.8,5.7-3.6
						c1.1-1.2,1.6-2.2,1.4-2.7c-0.3-0.7-2.2-1-3.1-1L275.5,38.5L275.5,38.5z M260.9,38.5c-0.7,0.1-2.3,0.5-2.6,1.2
						c-0.2,0.5,0.3,1.4,1.2,2.5c0,0,2.2,2.3,5.4,3.4c0.1-1.7,0-4.4-1.3-6C263.1,38.9,262.1,38.5,260.9,38.5z"/>
				</g>
			</g>
			<g>
				<g>
					<rect x="269.8" y="47.4" class="st5" width="1.8" height="14.7"/>
				</g>
			</g>
		</g>
	</g>
</g>
</svg>
