<svg id="Layer_1" data-name="Layer 1" xmlns="http://www.w3.org/2000/svg" xmlns:xlink="http://www.w3.org/1999/xlink" viewBox="0 0 31.44 31.05"><defs><style>.cls-1{fill:none;}.cls-2{clip-path:url(#clip-path);}.cls-3{fill:#0052a2;}</style><clipPath id="clip-path" transform="translate(-3.02 -3)"><rect class="cls-1" x="3" y="3" width="31.5" height="31"/></clipPath></defs><title>final-searchicon</title><g class="cls-2"><path class="cls-3" d="M34.2,30.4a1,1,0,0,0-.1-1.4L26,21.5a1,1,0,0,0-1.4.1l-2.9,3.3a1,1,0,0,0,.1,1.4L30,33.8a1,1,0,0,0,1.4-.1Z" transform="translate(-3.02 -3)"/></g><g class="cls-2"><path class="cls-3" d="M13.7,5.9a6.9,6.9,0,0,0-2.5.4h0a8,8,0,0,0-4.5,4,7.82,7.82,0,0,0,7,11.3,6.9,6.9,0,0,0,2.5-.4,8,8,0,0,0,4.5-4,8.3,8.3,0,0,0,.4-6,8,8,0,0,0-7.4-5.3m0-2.9a10.68,10.68,0,0,1,10.1,7.3,10.9,10.9,0,0,1-6.6,13.8A10.61,10.61,0,0,1,3.6,17.4,10.9,10.9,0,0,1,10.2,3.6,10.73,10.73,0,0,1,13.7,3" transform="translate(-3.02 -3)"/></g><g class="cls-2"><path class="cls-3" d="M13.6,10.7c1.5-.2,2.7,1.2,3.3,2.4a1.28,1.28,0,0,0,2.2-1.3c-1.3-2.4-3.4-3.9-6.2-3.6-.7.1-1,1-.9,1.6a1.28,1.28,0,0,0,1.6.9" transform="translate(-3.02 -3)"/></g></svg>