<?xml version="1.0" encoding="utf-8"?>
<!-- Generator: Adobe Illustrator 22.1.0, SVG Export Plug-In . SVG Version: 6.00 Build 0)  -->
<svg version="1.1" id="Layer_1" xmlns="http://www.w3.org/2000/svg" xmlns:xlink="http://www.w3.org/1999/xlink" x="0px" y="0px"
	 viewBox="0 0 51 64" style="enable-background:new 0 0 51 64;" xml:space="preserve">
<style type="text/css">
	.st0{clip-path:url(#SVGID_2_);fill:#FFFDC7;}
	.st1{clip-path:url(#SVGID_2_);fill:#60BAE3;}
	.st2{clip-path:url(#SVGID_2_);fill:#FFFFFF;}
	.st3{clip-path:url(#SVGID_2_);fill:none;stroke:#FFFFFF;stroke-width:4.100000e-02;stroke-miterlimit:10;}
	.st4{clip-path:url(#SVGID_2_);fill:#0F9BDC;}
	.st5{clip-path:url(#SVGID_2_);fill:#254B7C;}
</style>
<g>
	<defs>
		<rect id="SVGID_1_" y="0.3" width="51" height="63.7"/>
	</defs>
	<clipPath id="SVGID_2_">
		<use xlink:href="#SVGID_1_"  style="overflow:visible;"/>
	</clipPath>
	<path class="st0" d="M13.1,55.2h25.1c0.1,0,0.1-0.1,0.1-0.1v-3.9c0-0.1-0.1-0.1-0.1-0.1H13.1C13.1,51,13,51,13,51.1V55
		C13,55.1,13.1,55.2,13.1,55.2"/>
	<path class="st0" d="M50.8,25.6C51,11.4,39.5,0.3,25.5,0.3C11.5,0.3,0,11.4,0.2,25.6C0.4,39.9,13,41.5,13,51s25.3,9.5,25.3,0
		S50.7,39.9,50.8,25.6"/>
	<path class="st1" d="M13.6,55.2h24.3c0.1,0,0.1-0.1,0.1-0.1v-3.7c0-0.1-0.1-0.1-0.1-0.1H13.6c-0.1,0-0.1,0.1-0.1,0.1V55
		C13.4,55.1,13.5,55.2,13.6,55.2"/>
	<path class="st2" d="M15.4,56.3H36c1.6,0,2.9-1.3,2.9-2.9s-1.3-2.9-2.9-2.9H15.4c-1.6,0-2.9,1.3-2.9,2.9S13.8,56.3,15.4,56.3
		 M36,51.5c1,0,1.8,0.8,1.8,1.8S37,55.2,36,55.2H15.4c-1,0-1.8-0.8-1.8-1.8s0.8-1.8,1.8-1.8H36z"/>
	<path class="st3" d="M15.4,56.3H36c1.6,0,2.9-1.3,2.9-2.9s-1.3-2.9-2.9-2.9H15.4c-1.6,0-2.9,1.3-2.9,2.9S13.8,56.3,15.4,56.3z
		 M36,51.5c1,0,1.8,0.8,1.8,1.8S37,55.2,36,55.2H15.4c-1,0-1.8-0.8-1.8-1.8s0.8-1.8,1.8-1.8H36z"/>
	<path class="st4" d="M13.1,59.9h25.1c0.1,0,0.1-0.1,0.1-0.1v-3.4c0-0.1-0.1-0.1-0.1-0.1H13.1c-0.1,0-0.1,0.1-0.1,0.1v3.4
		C13,59.9,13.1,59.9,13.1,59.9"/>
	<path class="st2" d="M15.4,61H36c1.6,0,2.9-1.3,2.9-2.9c0-1.6-1.3-2.9-2.9-2.9H15.4c-1.6,0-2.9,1.3-2.9,2.9
		C12.5,59.7,13.8,61,15.4,61 M36,56.3c1,0,1.8,0.8,1.8,1.8c0,1-0.8,1.8-1.8,1.8H15.4c-1,0-1.8-0.8-1.8-1.8c0-1,0.8-1.8,1.8-1.8H36z"
		/>
	<path class="st3" d="M15.4,61H36c1.6,0,2.9-1.3,2.9-2.9c0-1.6-1.3-2.9-2.9-2.9H15.4c-1.6,0-2.9,1.3-2.9,2.9
		C12.5,59.7,13.8,61,15.4,61z M36,56.3c1,0,1.8,0.8,1.8,1.8c0,1-0.8,1.8-1.8,1.8H15.4c-1,0-1.8-0.8-1.8-1.8c0-1,0.8-1.8,1.8-1.8H36z
		"/>
	<path class="st5" d="M20.4,63.4H31c1.2,0,4.7-3,3.5-3H16.9C15.7,60.5,19.2,63.4,20.4,63.4"/>
	<path class="st2" d="M20.4,64H31c1.1,0,4.3-2.3,4.3-3.4c0-0.3-0.2-0.7-0.8-0.7H16.9c-0.5,0-0.8,0.4-0.8,0.7
		C16.1,61.7,19.3,64,20.4,64 M33.8,61c-0.7,0.7-2.3,1.9-2.9,1.9H20.4c-0.5,0-2.1-1.1-2.9-1.9H33.8z"/>
	<path class="st1" d="M27.1,50.4h1.7V37.3c3.5-1.1,5.8-3.5,5.9-3.6c1.4-1.5,1.9-2.8,1.5-3.9c-0.7-1.8-3.4-2.1-3.7-2.2l-0.1,0
		c-1.6,0-2.9,0.6-3.8,1.6c-1.6,1.9-1.7,5.1-1.6,6.8c-0.5,0.1-1,0.1-1.5,0.1c-0.4,0-0.8,0-1.1-0.1c-0.1-3.6-0.9-6.1-2.4-7.5
		c-1.2-1.1-2.5-1.1-2.8-1.1c-0.5,0-3.4,0.1-4.2,1.9c-0.5,1.2,0,2.5,1.6,4.2c2.8,2.8,5.9,4.2,9.1,4.2c0.5,0,1.1-0.1,1.6-0.1V50.4z
		 M19.3,29.2c0.2,0,0.9,0,1.6,0.7c0.8,0.7,1.7,2.3,1.8,5.9c-1.8-0.5-3.4-1.6-5.1-3.3c-1-1-1.4-1.9-1.2-2.4c0.3-0.6,1.9-0.9,2.7-0.9
		L19.3,29.2C19.3,29.2,19.3,29.2,19.3,29.2 M32.3,29.2c0.7,0.1,2.1,0.4,2.3,1.1c0.2,0.5-0.2,1.3-1.1,2.2c0,0-2,2.1-4.9,3.1
		c-0.1-1.5,0-3.9,1.2-5.3C30.4,29.6,31.2,29.2,32.3,29.2"/>
	<rect x="22.7" y="37.2" class="st1" width="1.7" height="13.2"/>
</g>
</svg>
