<?xml version="1.0" encoding="utf-8"?>
<!-- Generator: Adobe Illustrator 22.1.0, SVG Export Plug-In . SVG Version: 6.00 Build 0)  -->
<svg version="1.1" id="Layer_1" xmlns="http://www.w3.org/2000/svg" xmlns:xlink="http://www.w3.org/1999/xlink" x="0px" y="0px"
	 viewBox="0 0 29 38" style="enable-background:new 0 0 29 38;" xml:space="preserve">
<style type="text/css">
	.st0{clip-path:url(#SVGID_2_);fill:#0F9CDB;}
</style>
<g>
	<defs>
		<rect id="SVGID_1_" x="1" y="17" width="27.6" height="6"/>
	</defs>
	<clipPath id="SVGID_2_">
		<use xlink:href="#SVGID_1_"  style="overflow:visible;"/>
	</clipPath>
	<path class="st0" d="M4,23c1.7,0,3-1.3,3-3s-1.3-3-3-3s-3,1.3-3,3S2.3,23,4,23"/>
	<path class="st0" d="M15.1,23c1.7,0,3-1.3,3-3s-1.3-3-3-3c-1.7,0-3,1.3-3,3S13.4,23,15.1,23"/>
	<path class="st0" d="M25.6,23c1.7,0,3-1.3,3-3s-1.3-3-3-3s-3,1.3-3,3S23.9,23,25.6,23"/>
</g>
</svg>
