<svg id="Layer_1" data-name="Layer 1" xmlns="http://www.w3.org/2000/svg" xmlns:xlink="http://www.w3.org/1999/xlink" viewBox="0 0 30.53 30.6"><defs><style>.cls-1{fill:none;}.cls-2{clip-path:url(#clip-path);}.cls-3{fill:#61b9e2;}</style><clipPath id="clip-path" transform="translate(-3.2 -3.2)"><rect class="cls-1" x="3" y="3" width="31" height="31"/></clipPath></defs><title>tutorial</title><g class="cls-2"><path class="cls-3" d="M27.6,27.6a13,13,0,0,1-9.1,3.8,12.55,12.55,0,0,1-9.1-3.8,12.9,12.9,0,0,1,9.1-22,12.55,12.55,0,0,1,9.1,3.8h0a12.8,12.8,0,0,1,0,18.2M29.3,7.7a15.3,15.3,0,1,0,0,21.6,15.39,15.39,0,0,0,0-21.6" transform="translate(-3.2 -3.2)"/></g><g class="cls-2"><path class="cls-1" d="M27.6,27.6a13,13,0,0,1-9.1,3.8,12.55,12.55,0,0,1-9.1-3.8,12.9,12.9,0,0,1,9.1-22,12.55,12.55,0,0,1,9.1,3.8h0a12.8,12.8,0,0,1,0,18.2ZM29.3,7.7a15.3,15.3,0,1,0,0,21.6A15.39,15.39,0,0,0,29.3,7.7Z" transform="translate(-3.2 -3.2)"/></g><path class="cls-3" d="M23.82,17.37s2.44-2.73,3.91-2.3V22.8s-1.52.67-3.91-2.18c0,0,.64,3.59-2.24,3.59H12.29a2.58,2.58,0,0,1-2.56-2.79V15.93s0-2.25,2.94-2.24H21.6S24.17,13.68,23.82,17.37Z" transform="translate(-3.2 -3.2)"/></svg>