<?xml version="1.0" encoding="utf-8"?>
<!-- Generator: Adobe Illustrator 22.1.0, SVG Export Plug-In . SVG Version: 6.00 Build 0)  -->
<svg version="1.1" id="Layer_1" xmlns="http://www.w3.org/2000/svg" xmlns:xlink="http://www.w3.org/1999/xlink" x="0px" y="0px"
	 viewBox="0 0 800 750" style="enable-background:new 0 0 800 750;" xml:space="preserve">
<style type="text/css">
	.st0{clip-path:url(#SVGID_2_);fill:#009ECC;}
	.st1{clip-path:url(#SVGID_2_);fill:#0052A3;}
	.st2{clip-path:url(#SVGID_2_);fill:#61BAE3;}
	.st3{clip-path:url(#SVGID_2_);fill:#6B8AC2;}
	.st4{clip-path:url(#SVGID_2_);fill:#ADBFDE;}
	.st5{fill:#ADBFDE;}
	.st6{clip-path:url(#SVGID_4_);fill:#60BAE3;}
	.st7{clip-path:url(#SVGID_4_);fill:#FFFFFF;}
	.st8{clip-path:url(#SVGID_4_);fill:none;stroke:#FFFFFF;stroke-width:0.249;stroke-miterlimit:10;}
	.st9{clip-path:url(#SVGID_4_);fill:#0F9BDC;}
	.st10{clip-path:url(#SVGID_4_);fill:#254B7C;}
	.st11{clip-path:url(#SVGID_6_);fill:#FFFDC7;}
	.st12{clip-path:url(#SVGID_6_);fill:#60BAE3;}
	.st13{clip-path:url(#SVGID_6_);fill:#FFFFFF;}
	.st14{clip-path:url(#SVGID_6_);fill:none;stroke:#FFFFFF;stroke-width:0.249;stroke-miterlimit:10;}
	.st15{clip-path:url(#SVGID_6_);fill:#0F9BDC;}
	.st16{clip-path:url(#SVGID_6_);fill:#254B7C;}
</style>
<g>
	<defs>
		<rect id="SVGID_1_" x="7" y="15.5" width="788.1" height="726.5"/>
	</defs>
	<clipPath id="SVGID_2_">
		<use xlink:href="#SVGID_1_"  style="overflow:visible;"/>
	</clipPath>
	<path class="st0" d="M624.2,650L62.3,440c-10.1-3.8-15.2-15-11.4-25.1L195.5,28.2c3.8-10.1,15-15.2,25.1-11.4l561.9,210.1
		c10.1,3.8,15.2,15,11.4,25.1L649.2,638.6C645.5,648.7,634.2,653.8,624.2,650"/>
	<path class="st1" d="M420.1,592.5l-166-62.1c-10.1-3.8-15.2-15-11.4-25.1c3.8-10.1,15-15.2,25.1-11.4l166,62.1
		c10.1,3.8,15.2,15,11.4,25.1C441.4,591.1,430.2,596.2,420.1,592.5"/>
	<path class="st2" d="M668.1,643.6l-230-86c-3.6,6.9-11.7,10.2-19.2,7.4L273,510.4c-7.4-2.8-11.4-10.6-9.6-18.2l-230-86
		c-10.1-3.8-21.3,1.3-25.1,11.4c-3.8,10.1,1.3,21.3,11.4,25.1l634.8,237.4c10.1,3.8,21.3-1.3,25.1-11.4
		C683.3,658.6,678.2,647.4,668.1,643.6"/>
	<path class="st3" d="M761,272.9L641,593.9c-3.8,10.1-15,15.2-25.1,11.4L97.8,411.7c-8.7-3.2-13.7-12.1-12.5-20.9
		c0.2-1.4,0.5-2.8,1.1-4.2l120-321.1c3.8-10.1,15-15.2,25.1-11.4l518.1,193.7C759.7,251.6,764.8,262.8,761,272.9"/>
	<path class="st1" d="M501.1,139.3c-0.9,2.5-3.7,3.8-6.3,2.9c-2.5-0.9-3.8-3.7-2.9-6.3c0.9-2.5,3.7-3.8,6.3-2.9
		C500.8,134,502.1,136.8,501.1,139.3"/>
	<path class="st4" d="M557.1,175.8L330,90.9L169.6,164L86.4,386.6c-0.5,1.4-0.9,2.8-1.1,4.2L557.1,175.8z"/>
</g>
<polygon class="st5" points="644.8,208.6 603.5,193.2 112.3,417.1 153.6,432.5 "/>
<g>
	<defs>
		<rect id="SVGID_3_" x="321.3" y="358.3" width="307.3" height="383.7"/>
	</defs>
	<clipPath id="SVGID_4_">
		<use xlink:href="#SVGID_3_"  style="overflow:visible;"/>
	</clipPath>
	<path class="st6" d="M627.6,510.9c1.1-85.8-68.3-152.6-152.6-152.6c-84.3,0-153.6,66.8-152.6,152.6c1.1,85.8,77.4,95.4,77.4,152.6
		s152.6,57.2,152.6,0S626.5,596.7,627.6,510.9"/>
	<path class="st6" d="M400.5,688.8h151.1c0.4,0,0.8-0.3,0.8-0.8v-23.8c0-0.4-0.3-0.8-0.8-0.8H400.5c-0.4,0-0.8,0.3-0.8,0.8V688
		C399.8,688.4,400.1,688.8,400.5,688.8"/>
	<path class="st7" d="M414.1,695.4h124c9.7,0,17.6-7.9,17.6-17.6c0-9.7-7.9-17.6-17.6-17.6h-124c-9.7,0-17.6,7.9-17.6,17.6
		C396.4,687.5,404.3,695.4,414.1,695.4 M538,666.8c6.1,0,11,4.9,11,11c0,6.1-4.9,11-11,11h-124c-6.1,0-11-4.9-11-11
		c0-6.1,4.9-11,11-11H538z"/>
	<path class="st8" d="M414.1,695.4h124c9.7,0,17.6-7.9,17.6-17.6c0-9.7-7.9-17.6-17.6-17.6h-124c-9.7,0-17.6,7.9-17.6,17.6
		C396.4,687.5,404.3,695.4,414.1,695.4z M538,666.8c6.1,0,11,4.9,11,11c0,6.1-4.9,11-11,11h-124c-6.1,0-11-4.9-11-11
		c0-6.1,4.9-11,11-11H538z"/>
	<path class="st9" d="M400.5,717.4h151.1c0.4,0,0.8-0.3,0.8-0.8v-20.2c0-0.4-0.3-0.8-0.8-0.8H400.5c-0.4,0-0.8,0.3-0.8,0.8v20.2
		C399.8,717,400.1,717.4,400.5,717.4"/>
	<path class="st7" d="M414.1,724h124c9.7,0,17.6-7.9,17.6-17.6c0-9.7-7.9-17.6-17.6-17.6h-124c-9.7,0-17.6,7.9-17.6,17.6
		C396.4,716.1,404.3,724,414.1,724 M538,695.4c6.1,0,11,4.9,11,11c0,6.1-4.9,11-11,11h-124c-6.1,0-11-4.9-11-11c0-6.1,4.9-11,11-11
		H538z"/>
	<path class="st8" d="M414.1,724h124c9.7,0,17.6-7.9,17.6-17.6c0-9.7-7.9-17.6-17.6-17.6h-124c-9.7,0-17.6,7.9-17.6,17.6
		C396.4,716.1,404.3,724,414.1,724z M538,695.4c6.1,0,11,4.9,11,11c0,6.1-4.9,11-11,11h-124c-6.1,0-11-4.9-11-11c0-6.1,4.9-11,11-11
		H538z"/>
	<path class="st10" d="M444.3,738.7h63.6c7,0,28.2-18,21.2-18h-106C416.1,720.7,437.3,738.7,444.3,738.7"/>
	<path class="st7" d="M444.3,742h63.6c6.8,0,25.9-14,25.9-20.4c0-2.1-1.5-4.3-4.7-4.3h-106c-3.2,0-4.7,2.2-4.7,4.3
		C418.4,728,437.4,742,444.3,742 M525,724c-4.4,4.5-14,11.4-17.2,11.4h-63.6c-3.2,0-12.8-6.9-17.2-11.4H525z"/>
	<path class="st7" d="M484.8,659.8h10v-78.7c21.1-6.6,34.9-21.1,35.7-21.9c8.4-8.9,11.4-16.9,8.8-23.7c-4.1-11-20.6-12.9-22.5-13.1
		l-0.5,0c-9.6,0-17.2,3.3-22.8,9.9c-9.8,11.6-10.1,30.5-9.4,41.1c-2.9,0.5-5.8,0.8-8.9,0.9c-2.3,0-4.6-0.1-6.9-0.3
		c-0.5-21.6-5.4-36.7-14.7-45.1c-7.5-6.7-15-6.6-16.9-6.5c-3,0-20.7,0.7-25.4,11.5c-3,7,0,15.2,9.4,25.3c17,17,35.5,25.5,54.8,25.1
		c3.2-0.1,6.4-0.3,9.4-0.8V659.8z M437.8,532.4c1.1,0,5.2,0.3,9.4,4.2c4.8,4.4,10.3,14.2,11.1,35.3c-10.5-3.3-20.7-9.8-30.5-19.6
		c-5.8-6.2-8.6-11.7-7.4-14.4c1.7-3.9,11.6-5.5,16.5-5.5l0.6,0C437.5,532.4,437.6,532.4,437.8,532.4 M516,532.4
		c4,0.5,12.4,2.6,13.9,6.6c1.1,2.8-1.4,7.7-6.7,13.4c-0.2,0.2-11.8,12.4-29.3,18.5c-0.5-9.3,0.1-23.8,7.2-32.1
		C504.7,534.6,509.6,532.5,516,532.4"/>
	<rect x="458.4" y="580.4" class="st7" width="10" height="79.4"/>
</g>
<g>
	<defs>
		<rect id="SVGID_5_" x="321.3" y="358.3" width="307.3" height="383.7"/>
	</defs>
	<clipPath id="SVGID_6_">
		<use xlink:href="#SVGID_5_"  style="overflow:visible;"/>
	</clipPath>
	<path class="st11" d="M400.5,688.8h151.1c0.4,0,0.8-0.3,0.8-0.8v-23.8c0-0.4-0.3-0.8-0.8-0.8H400.5c-0.4,0-0.8,0.3-0.8,0.8V688
		C399.8,688.4,400.1,688.8,400.5,688.8"/>
	<path class="st11" d="M627.6,510.9c1.1-85.8-68.3-152.6-152.6-152.6c-84.3,0-153.6,66.8-152.6,152.6s77.3,95.4,77.3,152.6
		s152.6,57.2,152.6,0S626.5,596.7,627.6,510.9"/>
	<path class="st12" d="M403,688.8h146.4c0.4,0,0.8-0.3,0.8-0.8v-22.1c0-0.4-0.3-0.8-0.8-0.8H403c-0.4,0-0.8,0.3-0.8,0.8V688
		C402.3,688.4,402.6,688.8,403,688.8"/>
	<path class="st13" d="M414.1,695.4h124c9.7,0,17.6-7.9,17.6-17.6c0-9.7-7.9-17.6-17.6-17.6h-124c-9.7,0-17.6,7.9-17.6,17.6
		C396.4,687.5,404.3,695.4,414.1,695.4 M538,666.8c6.1,0,11,4.9,11,11c0,6.1-4.9,11-11,11h-124c-6.1,0-11-4.9-11-11
		c0-6.1,4.9-11,11-11H538z"/>
	<path class="st14" d="M414.1,695.4h124c9.7,0,17.6-7.9,17.6-17.6c0-9.7-7.9-17.6-17.6-17.6h-124c-9.7,0-17.6,7.9-17.6,17.6
		C396.4,687.5,404.3,695.4,414.1,695.4z M538,666.8c6.1,0,11,4.9,11,11c0,6.1-4.9,11-11,11h-124c-6.1,0-11-4.9-11-11
		c0-6.1,4.9-11,11-11H538z"/>
	<path class="st15" d="M400.5,717.4h151.1c0.4,0,0.8-0.3,0.8-0.8v-20.2c0-0.4-0.3-0.8-0.8-0.8H400.5c-0.4,0-0.8,0.3-0.8,0.8v20.2
		C399.8,717,400.1,717.4,400.5,717.4"/>
	<path class="st13" d="M414.1,724h124c9.7,0,17.6-7.9,17.6-17.6c0-9.7-7.9-17.6-17.6-17.6h-124c-9.7,0-17.6,7.9-17.6,17.6
		C396.4,716.1,404.3,724,414.1,724 M538,695.4c6.1,0,11,4.9,11,11c0,6.1-4.9,11-11,11h-124c-6.1,0-11-4.9-11-11c0-6.1,4.9-11,11-11
		H538z"/>
	<path class="st14" d="M414.1,724h124c9.7,0,17.6-7.9,17.6-17.6c0-9.7-7.9-17.6-17.6-17.6h-124c-9.7,0-17.6,7.9-17.6,17.6
		C396.4,716.1,404.3,724,414.1,724z M538,695.4c6.1,0,11,4.9,11,11c0,6.1-4.9,11-11,11h-124c-6.1,0-11-4.9-11-11c0-6.1,4.9-11,11-11
		H538z"/>
	<path class="st16" d="M444.3,738.7h63.6c7,0,28.2-18,21.2-18h-106C416.1,720.7,437.3,738.7,444.3,738.7"/>
	<path class="st13" d="M444.3,742h63.6c6.8,0,25.9-14,25.9-20.4c0-2.1-1.5-4.3-4.7-4.3h-106c-3.2,0-4.7,2.2-4.7,4.3
		C418.4,728,437.4,742,444.3,742 M525,724c-4.4,4.5-14,11.4-17.2,11.4h-63.6c-3.2,0-12.8-6.9-17.2-11.4H525z"/>
	<path class="st12" d="M484.8,659.8h9.9v-78.7c21.1-6.6,34.9-21.1,35.7-21.9c8.4-8.9,11.4-16.9,8.8-23.7
		c-4.1-11-20.6-12.9-22.5-13.1l-0.5,0c-9.6,0-17.2,3.3-22.8,9.9c-9.8,11.6-10.1,30.5-9.4,41.1c-2.9,0.5-5.8,0.8-8.9,0.9
		c-2.3,0-4.6-0.1-6.9-0.3c-0.5-21.6-5.4-36.7-14.7-45.1c-7.5-6.7-15-6.6-16.9-6.5c-3,0-20.7,0.7-25.4,11.5c-3,7,0,15.2,9.4,25.3
		c17,17,35.5,25.5,54.8,25.1c3.2-0.1,6.4-0.3,9.4-0.8V659.8z M437.8,532.4c1.1,0,5.2,0.3,9.4,4.2c4.8,4.4,10.3,14.2,11.1,35.3
		c-10.5-3.3-20.7-9.8-30.5-19.6c-5.8-6.2-8.6-11.7-7.4-14.4c1.7-3.9,11.6-5.5,16.5-5.5l0.6,0C437.5,532.4,437.6,532.4,437.8,532.4
		 M516,532.4c4,0.5,12.4,2.6,13.9,6.6c1.1,2.8-1.4,7.7-6.7,13.4c-0.2,0.2-11.8,12.4-29.3,18.5c-0.5-9.3,0.1-23.8,7.2-32.1
		C504.7,534.6,509.6,532.5,516,532.4"/>
	<rect x="458.4" y="580.4" class="st12" width="10" height="79.4"/>
</g>
</svg>
